<?xml version="1.0" encoding="utf-8"?>
<!-- Generator: Adobe Illustrator 25.1.0, SVG Export Plug-In . SVG Version: 6.00 Build 0)  -->
<svg version="1.1" id="Capa_1" xmlns="http://www.w3.org/2000/svg" xmlns:xlink="http://www.w3.org/1999/xlink" x="0px" y="0px"
	 viewBox="0 0 460 460" style="enable-background:new 0 0 460 460;" xml:space="preserve">
<g id="XMLID_504_">
	<path id="XMLID_893_" d="M420.4,132.9L341.5,32c-2.5-3.2-7-3.7-10.2-1.3c-3.2,2.5-3.7,7-1.3,10.2l7.5,9.7l-23.4,18.3L267.6,9.1
		C263.1,3.3,256.3,0,249,0H74.7C54.5,0,38.1,16.4,38.1,36.6v386.8c0,20.2,16.4,36.6,36.6,36.6h286.6c20.2,0,36.6-16.4,36.6-36.6
		v-239c0-5.2-1.8-10.4-5-14.5l-15-19.3l23.5-18.4l7.5,9.7c1.4,1.8,3.6,2.8,5.7,2.8c1.6,0,3.1-0.5,4.5-1.5
		C422.3,140.6,422.8,136.1,420.4,132.9z M381.4,178.8c1.2,1.6,1.9,3.6,1.9,5.6v239c0,12.2-9.9,22.1-22.1,22.1H74.7
		c-12.2,0-22.1-9.9-22.1-22.1V36.6c0-12.2,9.9-22.1,22.1-22.1H249c2.8,0,5.4,1.3,7.2,3.5L381.4,178.8z M392.4,120.8l-23.5,18.4
		l-45.8-58.8L346.5,62L392.4,120.8z" fill="#fff"/>
	<path id="XMLID_899_" d="M274.6,99.6c1.2-2.5,1-5.4-0.7-7.6l-33.4-44.5c-1.4-1.8-3.5-2.9-5.8-2.9H89.9c-4,0-7.3,3.3-7.3,7.3v44.5
		c0,4,3.3,7.3,7.3,7.3h178.2C270.9,103.6,273.4,102.1,274.6,99.6z M97.2,89.1v-30h133.9l22.5,30H97.2z" fill="#fff"/>
</g>
</svg>
