<?xml version="1.0" encoding="UTF-8"?> <svg xmlns="http://www.w3.org/2000/svg" viewBox="0 0 511.64 80.48"><defs><style>.cls-1{fill:#ed1b2f;}</style></defs><title>HondaMoto</title><g id="Layer_2" data-name="Layer 2"><path class="cls-1" d="M163.72,40.45l6,.7c2.68.3,3,2.54,3,4v7.06H145.16V45.12c0-1.43.3-3.67,3-4l6-.7v-6h-35.7v6l6,.7c2.68.3,3,2.54,3,4V68.25c0,1.43-.29,3.66-3,4l-6,.7v6h35.7v-6l-6-.7c-2.67-.31-3-2.54-3-4V61.19h27.49v7.06c0,1.43-.29,3.66-3,4l-6,.7v6h35.71v-6l-6-.7c-2.67-.31-3-2.54-3-4V45.12c0-1.43.29-3.67,3-4l6-.7v-6H163.72Z"></path><path class="cls-1" d="M401.82,34.42H357.73v6L363,41c1.88.24,3.12,1,3.12,3.64V68.25c0,1.43-.29,3.66-3,4l-6,.7v6h44.63c16,0,29.1-6.43,29.1-22.27s-13.14-22.26-29.1-22.26m-3.25,36H383.62V43h14.95c8.83,0,11.82,4.18,11.82,13.73S407.4,70.42,398.57,70.42Z"></path><path class="cls-1" d="M506,72.29c-2.82-.34-3.71-2.15-4.59-3.5L480.83,37.38c-1.48-2.26-2.55-3-4.74-3H442.25v6l8.07.92a2.36,2.36,0,0,1,1.41,3.76l-15.18,24.7a4.21,4.21,0,0,1-3.14,2.4l-6,.69v6H455.9v-6l-4.92-.5c-2.09-.23-3.21-1.69-2.17-3.4l2.27-3.72h27.39l2,3.09c1.77,2.7-.46,3.8-2.41,4l-5,.52v6h38.59v-6L506,72.29m-50-14.86,8.43-13.72,9,13.72Z"></path><path class="cls-1" d="M325.86,40.45l6,.7c2.67.3,3,2.54,3,4V67.41l-23.58-31.1c-1.07-1.43-2-1.89-4.52-1.89H276.06v6l6,.7c2.67.3,3,2.54,3,4V68.25c0,1.43-.29,3.66-3,4l-6,.7v6h28.53v-6l-6-.7c-2.68-.31-3-2.54-3-4V46l23.58,31.1c1.06,1.43,2,1.9,4.52,1.9h21.7V45.12c0-1.43.29-3.67,3-4l6-.7v-6H325.86Z"></path><path class="cls-1" d="M237.67,32.89c-29,0-36.49,12.69-36.49,23.8s7.49,23.79,36.49,23.79,36.49-12.68,36.49-23.79-7.49-23.8-36.49-23.8m0,39.11c-11.24,0-15.92-4.72-15.92-15.31s4.68-15.32,15.92-15.32,15.93,4.72,15.93,15.32S248.91,72,237.67,72Z"></path><polygon class="cls-1" points="31.77 78.96 25.32 72.98 57.9 69.2 73.66 78.96 31.77 78.96"></polygon><path class="cls-1" d="M86.69,53.38,18,66.24l6,5.53,31.6-4a1,1,0,0,1-.6-.9.89.89,0,0,1,.8-.85c.35,0,17.58-2.58,18.75-2.75A12.51,12.51,0,0,0,78.1,62.2a12,12,0,0,0,3-2c.41-.37,1.8-1.77,2.69-2.77.64-.71,1.09-1.23,1.47-1.67s1.29-1.54,1.65-2A.21.21,0,0,0,86.69,53.38Z"></path><path class="cls-1" d="M97.42,38.33,11.72,60.39l5.16,4.78,26.37-5c-.46-.27-.69-.48-.69-.93a.87.87,0,0,1,.72-.86L86.18,50a10.61,10.61,0,0,0,6.11-3.6c.57-.64,1.58-1.94,2.32-2.94.56-.75,1-1.48,1.4-2s1.31-2.08,1.7-2.76A.26.26,0,0,0,97.42,38.33Z"></path><path class="cls-1" d="M86.09,13.42c1.18-.49,6.84-2.94,8.12-3.53L100.66,7c1.55-.7,6.06-2.82,6.74-3.14,3.17-1.52,7.09-3.39,7.89-3.81a.32.32,0,0,1,.45.38c-.46,1.47-1.24,3.73-2.36,6.34a40.94,40.94,0,0,1-2.15,4.42,14.41,14.41,0,0,1-2.64,3.22,13.44,13.44,0,0,1-4.27,2.73l-3.86,1.52c-.29.11-5.07,1.9-6,2.21L9.84,50.7c-2,.69-4.28,2-4.28,4.57a5.66,5.66,0,0,0,2,3.78L28.91,79H19a11.29,11.29,0,0,0-.86-2,8.49,8.49,0,0,0-1.67-2.2l-2-2L3.22,61.48A10.5,10.5,0,0,1,0,54.29c0-3.39,1.88-6.62,7.48-8.92Z"></path><path class="cls-1" d="M95.41,24.76l3.85-1.31,3.14-1.16c1.57-.59,3.06-1.16,4.58-1.8.25-.1.5.09.39.36-.17.43-1.15,2.52-1.42,3-.7,1.28-1.32,2.45-2,3.55-.63.95-1.54,2.39-2.09,3a13.39,13.39,0,0,1-3.06,2.82A13.13,13.13,0,0,1,94.91,35L32.61,51.79a.89.89,0,0,0-.66.85,1,1,0,0,0,.64.88L10.51,59.27l-1.8-1.68a2.91,2.91,0,0,1-1-2.06c0-1.63,1.27-2.38,3.22-3Z"></path></g></svg> 