<?xml version="1.0" standalone="no"?>
<!DOCTYPE svg PUBLIC "-//W3C//DTD SVG 20010904//EN"
 "http://www.w3.org/TR/2001/REC-SVG-20010904/DTD/svg10.dtd">
<svg version="1.0" xmlns="http://www.w3.org/2000/svg"
 width="100.000000pt" height="38.000000pt" viewBox="0 0 100.000000 38.000000"
 preserveAspectRatio="xMidYMid meet">

<g transform="translate(0.000000,38.000000) scale(0.100000,-0.100000)"
fill="#000000" stroke="none">
<path d="M0 190 l0 -190 244 0 245 0 -30 64 c-43 93 -47 127 -17 168 28 37 48
89 48 124 l0 24 -245 0 -245 0 0 -190z m152 134 c3 -3 4 -14 1 -25 -4 -13 -14
-19 -34 -19 -22 0 -29 -5 -29 -20 0 -11 0 -23 0 -27 0 -5 10 -8 23 -8 36 0 29
-39 -8 -45 -26 -4 -30 -10 -33 -43 -3 -36 -2 -37 28 -37 27 0 31 -3 28 -22 -2
-19 -10 -24 -42 -26 -65 -6 -65 -6 -50 105 26 188 20 173 68 173 24 0 45 -3
48 -6z m132 -3 c11 -17 -6 -41 -29 -41 -37 0 -40 -30 -5 -61 22 -21 30 -37 30
-63 0 -40 -16 -87 -33 -98 -18 -11 -75 -10 -82 2 -14 23 5 45 37 45 28 0 33 4
36 26 2 18 -4 29 -23 39 -22 12 -25 20 -25 64 0 64 20 96 60 96 16 0 31 -4 34
-9z m136 -10 c0 -22 -14 -41 -30 -41 -18 0 -22 -15 -36 -136 -7 -70 -16 -89
-36 -81 -13 4 -13 17 -2 94 17 113 17 123 -1 123 -9 0 -15 9 -15 25 0 24 3 25
60 25 33 0 60 -4 60 -9z"/>
<path d="M517 203 c-10 -65 -17 -124 -17 -130 0 -9 17 -13 50 -13 44 0 52 3
59 23 13 33 17 90 7 105 -4 7 -3 19 4 27 6 7 10 33 8 57 l-3 43 -46 3 -46 3
-16 -118z m78 52 c0 -24 -5 -31 -24 -33 -19 -3 -22 0 -17 13 3 9 6 26 6 37 0
13 6 18 18 16 12 -2 17 -13 17 -33z m-5 -92 c0 -40 -13 -63 -34 -63 -19 0 -21
5 -18 40 4 34 7 40 28 40 16 0 24 -6 24 -17z"/>
<path d="M661 246 c-24 -166 -25 -186 -7 -186 9 0 16 3 16 8 0 4 7 50 15 102
19 120 19 150 1 150 -9 0 -17 -23 -25 -74z"/>
<path d="M733 313 c3 -5 -3 -62 -13 -128 -10 -66 -16 -123 -13 -127 2 -4 10
-5 17 -2 8 3 16 29 20 64 8 70 23 86 31 33 15 -88 16 -93 36 -93 12 0 19 7 19
20 0 11 -4 20 -10 20 -5 0 -11 17 -11 38 -1 20 -4 51 -8 67 -6 24 -1 39 21 73
27 39 28 42 9 42 -11 0 -22 -8 -25 -17 -4 -10 -15 -29 -26 -43 l-20 -25 6 43
c6 38 5 42 -15 42 -12 0 -20 -3 -18 -7z"/>
<path d="M873 313 c4 -7 -13 -143 -28 -225 -4 -27 -3 -28 44 -28 33 0 51 5 54
14 8 19 -1 26 -36 26 -26 0 -29 3 -23 22 3 13 6 31 6 40 0 11 10 18 27 20 38
4 45 38 9 38 -23 0 -26 4 -26 35 0 33 2 35 35 35 24 0 35 5 35 15 0 11 -12 15
-51 15 -27 0 -48 -3 -46 -7z"/>
</g>
</svg>
