<svg id="Layer_1" data-name="Layer 1" xmlns="http://www.w3.org/2000/svg" viewBox="0 0 570.4 236.65"><path d="M516.63,114.81l2.56-2.54c10.79-10.8,15.41-21.94,13.73-33.12-1.75-11.61-10.23-21.74-24.52-29.29-18.28-9.66-74.51-38.75-75.08-39A10,10,0,0,0,419,22.06l8.23,34L360.36,41.43a10,10,0,0,0-8.13,1.77L313.86,72,271.6,63,234.67,27.49a10,10,0,0,0-8.14-2.72l-99,12a10,10,0,0,0-3.6,18.7l120.52,66-11.53,9.28a61.11,61.11,0,1,0,19.4,48.07h34.39l6.84,15.8a10,10,0,0,0,9.18,6H418.23a10,10,0,0,0,6.58-2.46c1-.88,10.44-9.12,23.34-20.57a61.14,61.14,0,1,0,68.48-62.85ZM191.27,196.65a21.15,21.15,0,1,1,21.15-21.15A21.18,21.18,0,0,1,191.27,196.65Zm318,0A21.15,21.15,0,1,1,530.4,175.5,21.18,21.18,0,0,1,509.25,196.65Z" fill="#fff"/><path d="M90.12,180.58a6.42,6.42,0,0,0-9.22,0l-23.77,24V32L81,56.09A6.41,6.41,0,0,0,85.62,58a6.54,6.54,0,0,0,4.67-1.95l3.55-3.59a6.68,6.68,0,0,0,0-9.43L52.7,1.94a6.95,6.95,0,0,0-9.63,0L2,43.05a6.84,6.84,0,0,0,0,9.44l3.58,3.58a6.88,6.88,0,0,0,9.6,0L38.63,32.76V204L15.05,180.56a6.8,6.8,0,0,0-9.53,0L1.9,184.15a6.83,6.83,0,0,0,0,9.43L43,234.71a7,7,0,0,0,9.62,0L93.71,193.6a6.86,6.86,0,0,0,0-9.44Z" fill="#fff"/></svg>